<svg xmlns="http://www.w3.org/2000/svg" viewBox="-14.00 -14.00 812.22 146.00" width="812" height="146" role="img" aria-label="Arriaga &amp; Abogados"><title>Arriaga &amp; Abogados</title><g transform="translate(-28.26 -36.54) scale(0.8912)"><defs><mask id="h-crema-m" maskUnits="userSpaceOnUse" x="-50" y="-50" width="400" height="400">
<rect x="-50" y="-50" width="400" height="400" fill="#fff"/>
<path d="M158.788 173.404Q149.272 173.404 142.096 169.348Q134.92 165.292 130.942 158.11599999999999Q126.964 150.94 126.964 141.424Q126.964 132.22 130.63 124.264Q134.296 116.30799999999999 140.61399999999998 110.536Q146.932 104.764 154.888 102.268Q150.208 96.184 150.208 86.98Q150.208 78.868 153.874 72.316Q157.54 65.764 163.858 61.942Q170.176 58.120000000000005 177.976 58.120000000000005Q182.968 58.120000000000005 187.57 59.758Q192.172 61.396 195.136 64.204Q197.32 66.232 196.696 69.352L192.328 92.128Q191.86 94.468 190.144 94.468Q188.272 94.468 188.11599999999999 91.816L187.96 88.54Q187.336 75.592 184.372 70.21000000000001Q181.40800000000002 64.828 174.7 64.828Q169.084 64.828 164.638 67.792Q160.192 70.756 157.54000000000002 75.904Q154.888 81.052 154.888 87.604Q154.888 96.808 159.88 101.176Q162.22 100.864 164.56 100.864Q172.828 100.864 172.828 104.92Q172.828 108.664 166.9 108.664Q162.064 108.664 158.008 105.544Q138.196 111.628 138.196 137.992Q138.196 152.344 144.43599999999998 160.378Q150.676 168.412 161.596 168.412Q169.39600000000002 168.412 175.714 164.512Q182.03199999999998 160.612 185.77599999999998 154.13799999999998Q189.51999999999998 147.664 189.51999999999998 139.708Q189.51999999999998 127.53999999999999 177.976 127.53999999999999Q173.452 127.53999999999999 170.878 129.334Q168.304 131.128 168.304 133.78Q168.304 136.12 169.864 136.9Q171.424 137.68 173.452 138.148Q175.48 138.61599999999999 177.04 139.786Q178.6 140.956 178.6 144.076Q178.6 146.88400000000001 176.572 148.522Q174.54399999999998 150.16 171.268 150.16Q167.05599999999998 150.16 164.56 147.04000000000002Q162.064 143.92000000000002 162.064 138.772Q162.064 133.0 165.49599999999998 128.788Q168.928 124.576 174.778 122.704Q180.628 120.832 187.648 122.08L192.48399999999998 122.86Q202.624 124.42 202.624 120.364Q202.624 118.49199999999999 200.90800000000002 117.71199999999999Q199.192 116.932 197.008 116.22999999999999Q194.824 115.52799999999999 193.108 114.202Q191.392 112.876 191.392 110.068Q191.392 107.416 193.264 105.69999999999999Q195.136 103.984 198.56799999999998 103.984Q203.09199999999998 103.984 205.588 107.18199999999999Q208.084 110.38 208.084 115.684Q208.084 122.392 203.872 126.448Q199.66 130.504 193.108 130.036Q194.2 133.624 194.2 138.61599999999999Q194.2 148.6 189.598 156.478Q184.996 164.356 177.04000000000002 168.88Q169.084 173.404 158.788 173.404Z" fill="#000" stroke="#000" stroke-width="9.0" stroke-linejoin="round"/></mask></defs>
<path d="M31.7048876953125 160.0 75.1662841796875 40.999999999999986H101.15822998046876L144.54927734375002 160.0H120.25139648437501L88.027431640625 67.22067382812499L55.73311767578125 160.0ZM50.86802978515625 132.987431640625 56.94104736328126 115.049775390625H117.50765625000001L123.48102294921875 132.987431640625Z" fill="#FFFFFF" mask="url(#h-crema-m)"/>
<path d="M158.788 173.404Q149.272 173.404 142.096 169.348Q134.92 165.292 130.942 158.11599999999999Q126.964 150.94 126.964 141.424Q126.964 132.22 130.63 124.264Q134.296 116.30799999999999 140.61399999999998 110.536Q146.932 104.764 154.888 102.268Q150.208 96.184 150.208 86.98Q150.208 78.868 153.874 72.316Q157.54 65.764 163.858 61.942Q170.176 58.120000000000005 177.976 58.120000000000005Q182.968 58.120000000000005 187.57 59.758Q192.172 61.396 195.136 64.204Q197.32 66.232 196.696 69.352L192.328 92.128Q191.86 94.468 190.144 94.468Q188.272 94.468 188.11599999999999 91.816L187.96 88.54Q187.336 75.592 184.372 70.21000000000001Q181.40800000000002 64.828 174.7 64.828Q169.084 64.828 164.638 67.792Q160.192 70.756 157.54000000000002 75.904Q154.888 81.052 154.888 87.604Q154.888 96.808 159.88 101.176Q162.22 100.864 164.56 100.864Q172.828 100.864 172.828 104.92Q172.828 108.664 166.9 108.664Q162.064 108.664 158.008 105.544Q138.196 111.628 138.196 137.992Q138.196 152.344 144.43599999999998 160.378Q150.676 168.412 161.596 168.412Q169.39600000000002 168.412 175.714 164.512Q182.03199999999998 160.612 185.77599999999998 154.13799999999998Q189.51999999999998 147.664 189.51999999999998 139.708Q189.51999999999998 127.53999999999999 177.976 127.53999999999999Q173.452 127.53999999999999 170.878 129.334Q168.304 131.128 168.304 133.78Q168.304 136.12 169.864 136.9Q171.424 137.68 173.452 138.148Q175.48 138.61599999999999 177.04 139.786Q178.6 140.956 178.6 144.076Q178.6 146.88400000000001 176.572 148.522Q174.54399999999998 150.16 171.268 150.16Q167.05599999999998 150.16 164.56 147.04000000000002Q162.064 143.92000000000002 162.064 138.772Q162.064 133.0 165.49599999999998 128.788Q168.928 124.576 174.778 122.704Q180.628 120.832 187.648 122.08L192.48399999999998 122.86Q202.624 124.42 202.624 120.364Q202.624 118.49199999999999 200.90800000000002 117.71199999999999Q199.192 116.932 197.008 116.22999999999999Q194.824 115.52799999999999 193.108 114.202Q191.392 112.876 191.392 110.068Q191.392 107.416 193.264 105.69999999999999Q195.136 103.984 198.56799999999998 103.984Q203.09199999999998 103.984 205.588 107.18199999999999Q208.084 110.38 208.084 115.684Q208.084 122.392 203.872 126.448Q199.66 130.504 193.108 130.036Q194.2 133.624 194.2 138.61599999999999Q194.2 148.6 189.598 156.478Q184.996 164.356 177.04000000000002 168.88Q169.084 173.404 158.788 173.404Z" fill="#FFFFFF"/></g><rect x="180.19" y="16.52" width="1.4" height="84.96" fill="#FFFFFF" opacity="0.7"/><g transform="translate(203.19 81.40)"><path d="M1.54921875 0.0 17.95528125 -44.800000000000004H26.538078125000002L42.906625 0.0H34.7740625L22.2014375 -35.855312500000004L9.591296875 0.0ZM8.862859375 -10.5665625 10.928546875 -16.6135625H32.991L35.030203125 -10.5665625ZM46.790609375 0.0V-31.744H53.64093750000001L54.353781250000004 -25.732421875Q55.48371875 -27.82896875 57.16096093750001 -29.338484375Q58.83820312500001 -30.848 61.075992187500006 -31.68Q63.313781250000005 -32.512 66.04590625 -32.512V-24.416953125H63.93828125Q61.905734375 -24.416953125 60.16339843750001 -23.939164062499998Q58.421062500000005 -23.461375 57.13996875000001 -22.377796875Q55.858875000000005 -21.29421875 55.164812500000004 -19.420578125Q54.47075 -17.546937500000002 54.47075 -14.755234375V0.0ZM69.830609375 0.0V-31.744H76.6809375L77.39378124999999 -25.732421875Q78.52371875 -27.82896875 80.2009609375 -29.338484375Q81.878203125 -30.848 84.1159921875 -31.68Q86.35378125 -32.512 89.08590625 -32.512V-24.416953125H86.97828125Q84.945734375 -24.416953125 83.2033984375 -23.939164062499998Q81.4610625 -23.461375 80.17996875 -22.377796875Q78.89887499999999 -21.29421875 78.2048125 -19.420578125Q77.51075 -17.546937500000002 77.51075 -14.755234375V0.0ZM93.20824999999999 0.0V-31.744H100.88839062499999V0.0ZM97.06156249999998 -37.062515625Q94.93187499999999 -37.062515625 93.57130468749999 -38.356875Q92.21073437499999 -39.651234375 92.21073437499999 -41.59553125Q92.21073437499999 -43.5663125 93.57130468749999 -44.82315625Q94.93187499999999 -46.08 97.06156249999998 -46.08Q99.18021875 -46.08 100.559546875 -44.82315625Q101.93887499999998 -43.5663125 101.93887499999998 -41.59553125Q101.93887499999998 -39.651234375 100.559546875 -38.356875Q99.18021875 -37.062515625 97.06156249999998 -37.062515625ZM118.54345312499998 0.768Q114.52248437499999 0.768 111.88524218749998 -0.5362734375Q109.24799999999999 -1.840546875 107.96799999999999 -4.0408203125Q106.68799999999999 -6.24109375 106.68799999999999 -8.86509375Q106.68799999999999 -11.890734375000001 108.25361834574854 -14.112958826013514Q109.81923669149708 -16.335183277027028 112.90044781068312 -17.576685388513514Q115.98165892986917 -18.8181875 120.50191438045056 -18.8181875H128.66424999999998Q128.66424999999998 -21.311953125 127.91354115853656 -22.9417265625Q127.16283231707315 -24.5715 125.66958898628047 -25.395765625000003Q124.1763456554878 -26.22003125 121.93549999999999 -26.22003125Q119.27621874999998 -26.22003125 117.34299999999999 -24.9830859375Q115.40978124999998 -23.746140625 114.97723437499998 -21.2943125H107.43393749999998Q107.79641894531248 -24.78390243902439 109.77793603515624 -27.280771532012196Q111.759453125 -29.777640625 114.95835937499999 -31.144820312500002Q118.15726562499998 -32.512 121.96198437499999 -32.512Q126.46652151268114 -32.512 129.68676630434783 -30.959453125000003Q132.9070110960145 -29.406906250000002 134.62570086050724 -26.5081484375Q136.344390625 -23.609390625 136.344390625 -19.52V0.0H129.796421875L129.0261875 -5.139828125Q128.36616272865854 -3.8679752155172413 127.38417511432925 -2.7935657327586205Q126.40218749999998 -1.71915625 125.11667187499998 -0.9213671875Q123.83115624999999 -0.123578125 122.1991231617647 0.3222109375Q120.5670900735294 0.768 118.54345312499998 0.768ZM120.24305805200729 -5.285609375Q122.12968749999999 -5.285609375 123.59614843749999 -5.97525Q125.062609375 -6.664890625 126.10425 -7.866830468750001Q127.14589062499999 -9.068770312500002 127.71967968749999 -10.604654687500002Q128.29346875 -12.1405390625 128.425890625 -13.826140625V-13.86365625H121.33078124999999Q119.01579687499998 -13.86365625 117.55927343749998 -13.2998046875Q116.10274999999999 -12.735953125 115.44289843749999 -11.74728125Q114.78304687499998 -10.758609375 114.78304687499998 -9.465390625Q114.78304687499998 -8.1456875 115.43970261177006 -7.202257812499999Q116.09635834854014 -6.258828125 117.32460441377737 -5.77221875Q118.55285047901458 -5.285609375 120.24305805200729 -5.285609375ZM155.82459375 14.848Q151.35120312499998 14.848 147.9569921875 13.728000000000002Q144.56278125 12.608 142.6935390625 10.330484375000001Q140.824296875 8.05296875 140.824296875 4.687453125Q140.824296875 2.72328125 141.8163203125 0.8529218749999999Q142.80834375 -1.0174375 144.815546875 -2.6306796875Q146.82274999999998 -4.243921875 149.94553125 -5.44446875L153.23820312499998 -1.78534375Q150.26553124999998 -0.69515625 149.05614062499998 0.8452421875Q147.84675 2.385640625 147.84675 3.9370937500000003Q147.84675 5.598859375 148.90384375 6.71553125Q149.9609375 7.832203125 151.7738828125 8.3905390625Q153.58682812499998 8.948875000000001 155.82459375 8.948875000000001Q158.00939062499998 8.948875000000001 159.63033593749998 8.3475078125Q161.25128125 7.746140625 162.1671328125 6.6427109375Q163.082984375 5.53928125 163.082984375 4.04303125Q163.082984375 2.233390625 161.7555546875 1.0339609375Q160.428125 -0.16546875 156.599203125 -0.42146875Q153.19398437499999 -0.6774687500000001 150.6792265625 -1.151953125Q148.16446875 -1.6264375 146.3415625 -2.2741640625Q144.51865625 -2.921890625 143.2529921875 -3.7296171874999997Q141.987328125 -4.53734375 141.144296875 -5.3693437500000005V-6.84134375L147.80253125 -13.89684375L153.40590625 -12.02096875L145.96859375 -4.660875L147.96590625 -8.26703125Q148.643421875 -7.808 149.30990624999998 -7.44496875Q149.976390625 -7.0819375 151.011421875 -6.8016640625Q152.046453125 -6.521390625 153.7413359375 -6.2786328125Q155.43621875 -6.035875 158.13301562499998 -5.806359375Q162.368046875 -5.459875 165.04501562500002 -4.243875Q167.721984375 -3.027875 168.9721953125 -0.9986328124999999Q170.22240625 1.030609375 170.22240625 3.85103125Q170.22240625 6.656000000000001 168.6786796875 9.1652421875Q167.13495312499998 11.674484375 163.95149999999998 13.2612421875Q160.76804687499998 14.848 155.82459375 14.848ZM155.84004687499998 -9.56025Q151.808046875 -9.56025 148.92583593749998 -11.1039765625Q146.043625 -12.647703125 144.5054140625 -15.2474296875Q142.967203125 -17.84715625 142.967203125 -21.036125000000002Q142.967203125 -24.22509375 144.5054140625 -26.8060625Q146.043625 -29.38703125 148.92583593749998 -30.949515625Q151.808046875 -32.512 155.84004687499998 -32.512Q159.872046875 -32.512 162.7542578125 -30.949515625Q165.63646875 -29.38703125 167.1614375 -26.8060625Q168.68640625 -24.22509375 168.68640625 -21.036125000000002Q168.68640625 -17.84715625 167.1614375 -15.2474296875Q165.63646875 -12.647703125 162.7542578125 -11.1039765625Q159.872046875 -9.56025 155.84004687499998 -9.56025ZM155.84004687499998 -15.512343750000001Q158.54345312499998 -15.512343750000001 160.2283984375 -16.928046875Q161.91334375 -18.34375 161.91334375 -21.009640625Q161.91334375 -23.638015625 160.2283984375 -25.05371875Q158.54345312499998 -26.469421875000002 155.84004687499998 -26.469421875000002Q153.11015625 -26.469421875000002 151.40645312499998 -25.05371875Q149.70274999999998 -23.638015625 149.70274999999998 -21.009640625Q149.70274999999998 -18.34375 151.40645312499998 -16.928046875Q153.11015625 -15.512343750000001 155.84004687499998 -15.512343750000001ZM161.01301562499998 -26.114140625 159.5454375 -31.744H172.808890625V-26.943953125ZM188.559453125 0.768Q184.538484375 0.768 181.90124218749997 -0.5362734375Q179.26399999999998 -1.840546875 177.98399999999998 -4.0408203125Q176.70399999999998 -6.24109375 176.70399999999998 -8.86509375Q176.70399999999998 -11.890734375000001 178.26961834574854 -14.112958826013514Q179.83523669149707 -16.335183277027028 182.9164478106831 -17.576685388513514Q185.99765892986917 -18.8181875 190.51791438045058 -18.8181875H198.68025Q198.68025 -21.311953125 197.92954115853658 -22.9417265625Q197.17883231707316 -24.5715 195.6855889862805 -25.395765625000003Q194.1923456554878 -26.22003125 191.95149999999998 -26.22003125Q189.29221875 -26.22003125 187.35899999999998 -24.9830859375Q185.42578125 -23.746140625 184.993234375 -21.2943125H177.4499375Q177.8124189453125 -24.78390243902439 179.79393603515624 -27.280771532012196Q181.77545312499998 -29.777640625 184.974359375 -31.144820312500002Q188.173265625 -32.512 191.977984375 -32.512Q196.48252151268116 -32.512 199.70276630434782 -30.959453125000003Q202.92301109601448 -29.406906250000002 204.64170086050723 -26.5081484375Q206.36039062499998 -23.609390625 206.36039062499998 -19.52V0.0H199.81242187499998L199.04218749999998 -5.139828125Q198.38216272865853 -3.8679752155172413 197.40017511432927 -2.7935657327586205Q196.4181875 -1.71915625 195.13267187499997 -0.9213671875Q193.84715624999998 -0.123578125 192.2151231617647 0.3222109375Q190.5830900735294 0.768 188.559453125 0.768ZM190.25905805200728 -5.285609375Q192.14568749999998 -5.285609375 193.61214843749997 -5.97525Q195.07860937499998 -6.664890625 196.12025 -7.866830468750001Q197.16189062499998 -9.068770312500002 197.73567968749998 -10.604654687500002Q198.30946874999998 -12.1405390625 198.44189062499998 -13.826140625V-13.86365625H191.34678125Q189.031796875 -13.86365625 187.5752734375 -13.2998046875Q186.11874999999998 -12.735953125 185.45889843749998 -11.74728125Q184.799046875 -10.758609375 184.799046875 -9.465390625Q184.799046875 -8.1456875 185.45570261177005 -7.202257812499999Q186.11235834854014 -6.258828125 187.34060441377738 -5.77221875Q188.5688504790146 -5.285609375 190.25905805200728 -5.285609375Z" fill="#FFFFFF"/><path d="M246.16704 0.76032Q241.01375999999996 0.76032 237.12767999999997 -1.4361599999999999Q233.24159999999998 -3.63264 231.08736 -7.51872Q228.93311999999997 -11.4048 228.93311999999997 -16.55808Q228.93311999999997 -21.5424 230.91839999999996 -25.85088Q232.90367999999998 -30.15936 236.32511999999997 -33.28512Q239.74656 -36.41088 244.05503999999996 -37.76256Q241.52064 -41.05728 241.52064 -46.0416Q241.52064 -50.43456 243.50591999999997 -53.98272Q245.49119999999996 -57.530879999999996 248.91263999999995 -59.60064Q252.33407999999997 -61.6704 256.55807999999996 -61.6704Q259.26144 -61.6704 261.7536 -60.78336Q264.24575999999996 -59.89632 265.85087999999996 -58.37568Q267.0336 -57.27744 266.69568 -55.58784L264.33024 -43.25376Q264.0768 -41.98656 263.14752 -41.98656Q262.13376 -41.98656 262.04927999999995 -43.42272L261.96479999999997 -45.1968Q261.62687999999997 -52.20864 260.02176 -55.1232Q258.41664 -58.03776 254.78399999999996 -58.03776Q251.74271999999996 -58.03776 249.33503999999996 -56.43264Q246.92735999999996 -54.82752 245.49119999999996 -52.039680000000004Q244.05503999999996 -49.25184 244.05503999999996 -45.70368Q244.05503999999996 -40.71936 246.75839999999997 -38.35392Q248.02559999999997 -38.52288 249.29279999999997 -38.52288Q253.77023999999997 -38.52288 253.77023999999997 -36.3264Q253.77023999999997 -34.29888 250.55999999999997 -34.29888Q247.94111999999998 -34.29888 245.74463999999998 -35.98848Q235.01567999999997 -32.69376 235.01567999999997 -18.41664Q235.01567999999997 -10.64448 238.39487999999997 -6.29376Q241.77407999999997 -1.9430399999999999 247.68767999999997 -1.9430399999999999Q251.91168 -1.9430399999999999 255.33311999999998 -4.05504Q258.75455999999997 -6.16704 260.78207999999995 -9.67296Q262.8096 -13.17888 262.8096 -17.48736Q262.8096 -24.0768 256.55807999999996 -24.0768Q254.10815999999997 -24.0768 252.71423999999996 -23.10528Q251.32031999999998 -22.13376 251.32031999999998 -20.6976Q251.32031999999998 -19.4304 252.16511999999997 -19.008Q253.00991999999997 -18.5856 254.10815999999997 -18.332160000000002Q255.20639999999997 -18.07872 256.0512 -17.445120000000003Q256.89599999999996 -16.81152 256.89599999999996 -15.12192Q256.89599999999996 -13.60128 255.79775999999998 -12.71424Q254.69951999999998 -11.8272 252.92543999999998 -11.8272Q250.64448 -11.8272 249.2928 -13.5168Q247.94111999999998 -15.2064 247.94111999999998 -17.99424Q247.94111999999998 -21.12 249.79967999999997 -23.400959999999998Q251.65823999999998 -25.681919999999998 254.82623999999998 -26.69568Q257.99424 -27.70944 261.79584 -27.0336L264.41472 -26.6112Q269.90592 -25.7664 269.90592 -27.96288Q269.90592 -28.97664 268.97664 -29.39904Q268.04735999999997 -29.82144 266.86464 -30.2016Q265.68192 -30.58176 264.75264 -31.299839999999996Q263.82336 -32.01792 263.82336 -33.53856Q263.82336 -34.97472 264.83711999999997 -35.903999999999996Q265.85087999999996 -36.83328 267.70944 -36.83328Q270.15936 -36.83328 271.51104 -35.10144Q272.86271999999997 -33.3696 272.86271999999997 -30.49728Q272.86271999999997 -26.86464 270.58176 -24.66816Q268.3008 -22.47168 264.75264 -22.72512Q265.344 -20.78208 265.344 -18.07872Q265.344 -12.672 262.85184 -8.40576Q260.35967999999997 -4.13952 256.0512 -1.6896Q251.74271999999996 0.76032 246.16704 0.76032Z" fill="#FFFFFF"/><path d="M289.12681875 0.0 305.53288124999995 -44.800000000000004H314.115678125L330.484225 0.0H322.3516625L309.77903749999996 -35.855312500000004L297.168896875 0.0ZM296.44045937499993 -10.5665625 298.50614687499996 -16.6135625H320.56859999999995L322.607803125 -10.5665625ZM352.81133437499994 0.768Q350.37272499999995 0.768 348.35011562499994 0.1379375Q346.32750624999994 -0.49212500000000003 344.73192812499997 -1.6772187500000002Q343.13635 -2.8623125000000003 342.04834999999997 -4.51746875L341.21853749999997 0.0H334.368209375V-46.08H342.04834999999997V-27.07865625Q343.557865625 -29.22375 346.1542640625 -30.867874999999998Q348.7506625 -32.512 352.84884999999997 -32.512Q357.399459375 -32.512 360.9062171875 -30.336Q364.41297499999996 -28.16 366.43118593749995 -24.38977584773936Q368.44939687499993 -20.619551695478723 368.44939687499993 -15.800580618351063Q368.44939687499993 -11.034484375 366.43118593749995 -7.2772421875Q364.41297499999996 -3.52 360.8902119645365 -1.376Q357.367448929073 0.768 352.81133437499994 0.768ZM351.281896875 -5.9168125Q354.0277629601227 -5.9168125 356.14640995973923 -7.188271661931818Q358.2650569593558 -8.459730823863636 359.45867222967786 -10.691276633522726Q360.65228749999994 -12.922822443181818 360.65228749999994 -15.85835653409091Q360.65228749999994 -18.76740625 359.45867222967786 -21.0210625Q358.2650569593558 -23.27471875 356.14640995973923 -24.550953125Q354.0277629601227 -25.8271875 351.281896875 -25.8271875Q348.53213124999996 -25.8271875 346.41242812499996 -24.5483046875Q344.29272499999996 -23.269421875 343.10211562499995 -21.035413335755813Q341.91150624999995 -18.801404796511626 341.91150624999995 -15.862514898255814Q341.91150624999995 -12.950109375 343.10211562499995 -10.699101562500001Q344.29272499999996 -8.44809375 346.41242812499996 -7.182453125Q348.53213124999996 -5.9168125 351.281896875 -5.9168125ZM388.8750480976512 0.768Q384.34341249999994 0.768 380.67995937499995 -1.33296875Q377.01650624999996 -3.4339375 374.8835375 -7.189075348078216Q372.75056874999996 -10.944213196156433 372.75056874999996 -15.848221985153405Q372.75056874999996 -20.8220625 374.9022953125 -24.5793046875Q377.054021875 -28.336546875 380.73332971754803 -30.4242734375Q384.41263756009613 -32.512 388.9439573431776 -32.512Q393.53734999999995 -32.512 397.200803125 -30.4242734375Q400.86425625 -28.336546875 402.99722499999996 -24.59089089439655Q405.13019375 -20.845234913793107 405.13019375 -15.853875735597772Q405.13019375 -10.9219375 402.9784671875 -7.1779375000000005Q400.82674062499996 -3.4339375 397.14775076013507 -1.33296875Q393.46876089527024 0.768 388.8750480976512 0.768ZM388.8968264766483 -5.8528125Q391.178146875 -5.8528125 393.06942812499994 -6.9716953125Q394.96070937499996 -8.090578125 396.12813906249994 -10.332606019221883Q397.29556875 -12.574633913443765 397.29556875 -15.876081581858408Q397.29556875 -19.21540625 396.1468968749999 -21.4344140625Q394.99822499999993 -23.653421875 393.10549033917675 -24.7723046875Q391.21275567835363 -25.8911875 388.9652563107243 -25.8911875Q386.766615625 -25.8911875 384.843334375 -24.7723046875Q382.920053125 -23.653421875 381.7526234375 -21.4280140625Q380.58519375 -19.202606250000002 380.58519375 -15.864736527777778Q380.58519375 -12.575953125 381.7526234375 -10.333265625Q382.920053125 -8.090578125 384.80581874999996 -6.9716953125Q386.69158437499993 -5.8528125 388.8968264766483 -5.8528125ZM422.21819374999995 14.848Q417.744803125 14.848 414.35059218749996 13.728000000000002Q410.95638124999994 12.608 409.08713906249994 10.330484375000001Q407.21789687499995 8.05296875 407.21789687499995 4.687453125Q407.21789687499995 2.72328125 408.20992031249995 0.8529218749999999Q409.20194374999994 -1.0174375 411.209146875 -2.6306796875Q413.21635 -4.243921875 416.33913125 -5.44446875L419.631803125 -1.78534375Q416.65913125 -0.69515625 415.449740625 0.8452421875Q414.24035 2.385640625 414.24035 3.9370937500000003Q414.24035 5.598859375 415.29744374999996 6.71553125Q416.35453749999994 7.832203125 418.16748281249994 8.3905390625Q419.98042812499995 8.948875000000001 422.21819374999995 8.948875000000001Q424.402990625 8.948875000000001 426.02393593749997 8.3475078125Q427.64488124999997 7.746140625 428.56073281249996 6.6427109375Q429.47658437499996 5.53928125 429.47658437499996 4.04303125Q429.47658437499996 2.233390625 428.14915468749996 1.0339609375Q426.82172499999996 -0.16546875 422.99280312499997 -0.42146875Q419.58758437499995 -0.6774687500000001 417.0728265624999 -1.151953125Q414.55806874999996 -1.6264375 412.7351625 -2.2741640625Q410.91225625 -2.921890625 409.6465921875 -3.7296171874999997Q408.38092812499997 -4.53734375 407.53789687499994 -5.3693437500000005V-6.84134375L414.19613124999995 -13.89684375L419.79950625 -12.02096875L412.36219374999996 -4.660875L414.35950625 -8.26703125Q415.03702187499994 -7.808 415.7035062499999 -7.44496875Q416.36999062499996 -7.0819375 417.405021875 -6.8016640625Q418.44005312499996 -6.521390625 420.13493593749996 -6.2786328125Q421.82981874999996 -6.035875 424.526615625 -5.806359375Q428.76164687499994 -5.459875 431.43861562499995 -4.243875Q434.11558437499997 -3.027875 435.3657953124999 -0.9986328124999999Q436.61600624999994 1.030609375 436.61600624999994 3.85103125Q436.61600624999994 6.656000000000001 435.0722796875 9.1652421875Q433.528553125 11.674484375 430.3451 13.2612421875Q427.161646875 14.848 422.21819374999995 14.848ZM422.233646875 -9.56025Q418.20164687499994 -9.56025 415.3194359375 -11.1039765625Q412.43722499999996 -12.647703125 410.8990140625 -15.2474296875Q409.36080312499996 -17.84715625 409.36080312499996 -21.036125000000002Q409.36080312499996 -24.22509375 410.8990140625 -26.8060625Q412.43722499999996 -29.38703125 415.3194359375 -30.949515625Q418.20164687499994 -32.512 422.233646875 -32.512Q426.26564687499996 -32.512 429.1478578125 -30.949515625Q432.03006874999994 -29.38703125 433.5550374999999 -26.8060625Q435.08000624999994 -24.22509375 435.08000624999994 -21.036125000000002Q435.08000624999994 -17.84715625 433.5550374999999 -15.2474296875Q432.03006874999994 -12.647703125 429.1478578125 -11.1039765625Q426.26564687499996 -9.56025 422.233646875 -9.56025ZM422.233646875 -15.512343750000001Q424.937053125 -15.512343750000001 426.6219984375 -16.928046875Q428.30694374999996 -18.34375 428.30694374999996 -21.009640625Q428.30694374999996 -23.638015625 426.6219984375 -25.05371875Q424.937053125 -26.469421875000002 422.233646875 -26.469421875000002Q419.50375625 -26.469421875000002 417.800053125 -25.05371875Q416.09635 -23.638015625 416.09635 -21.009640625Q416.09635 -18.34375 417.800053125 -16.928046875Q419.50375625 -15.512343750000001 422.233646875 -15.512343750000001ZM427.406615625 -26.114140625 425.9390375 -31.744H439.20249062499994V-26.943953125ZM454.95305312499994 0.768Q450.93208437499993 0.768 448.29484218749997 -0.5362734375Q445.65759999999995 -1.840546875 444.3775999999999 -4.0408203125Q443.09759999999994 -6.24109375 443.09759999999994 -8.86509375Q443.09759999999994 -11.890734375000001 444.66321834574853 -14.112958826013514Q446.22883669149707 -16.335183277027028 449.3100478106831 -17.576685388513514Q452.39125892986914 -18.8181875 456.9115143804505 -18.8181875H465.07384999999994Q465.07384999999994 -21.311953125 464.32314115853654 -22.9417265625Q463.57243231707315 -24.5715 462.0791889862804 -25.395765625000003Q460.58594565548776 -26.22003125 458.34509999999995 -26.22003125Q455.68581874999995 -26.22003125 453.7525999999999 -24.9830859375Q451.81938124999994 -23.746140625 451.386834375 -21.2943125H443.84353749999997Q444.20601894531245 -24.78390243902439 446.1875360351562 -27.280771532012196Q448.16905312499995 -29.777640625 451.36795937499994 -31.144820312500002Q454.56686562499993 -32.512 458.37158437499994 -32.512Q462.8761215126811 -32.512 466.0963663043478 -30.959453125000003Q469.31661109601447 -29.406906250000002 471.0353008605072 -26.5081484375Q472.753990625 -23.609390625 472.753990625 -19.52V0.0H466.206021875L465.43578749999995 -5.139828125Q464.7757627286585 -3.8679752155172413 463.79377511432926 -2.7935657327586205Q462.8117875 -1.71915625 461.52627187499996 -0.9213671875Q460.24075624999995 -0.123578125 458.60872316176466 0.3222109375Q456.97669007352937 0.768 454.95305312499994 0.768ZM456.65265805200727 -5.285609375Q458.53928749999994 -5.285609375 460.00574843749996 -5.97525Q461.472209375 -6.664890625 462.51384999999993 -7.866830468750001Q463.55549062499995 -9.068770312500002 464.12927968749995 -10.604654687500002Q464.70306874999994 -12.1405390625 464.835490625 -13.826140625V-13.86365625H457.7403812499999Q455.42539687499993 -13.86365625 453.96887343749995 -13.2998046875Q452.51234999999997 -12.735953125 451.8524984375 -11.74728125Q451.192646875 -10.758609375 451.192646875 -9.465390625Q451.192646875 -8.1456875 451.84930261177004 -7.202257812499999Q452.5059583485401 -6.258828125 453.7342044137773 -5.77221875Q454.96245047901454 -5.285609375 456.65265805200727 -5.285609375ZM493.281320703125 0.768Q488.76712734374996 0.768 485.225058984375 -1.408Q481.682990625 -3.584 479.66477968749996 -7.3732421875Q477.64656875 -11.162484375 477.64656875 -15.936Q477.64656875 -20.72399722906404 479.66477968749996 -24.47399861453202Q481.682990625 -28.224 485.2459806738827 -30.368000000000002Q488.80897072276537 -32.512 493.322146875 -32.512Q496.961303125 -32.512 499.7232171875 -31.123874999999998Q502.48513125 -29.73575 504.08513124999996 -27.22653125V-46.08H511.765271875V0.0H504.91494374999996L504.08513124999996 -4.66534375Q503.08761562499996 -3.23528125 501.60679531249997 -1.991703125Q500.125975 -0.748125 498.071365625 0.009937499999999988Q496.01675624999996 0.768 493.281320703125 0.768ZM494.81406875 -5.9168125Q497.57066905241936 -5.9168125 499.68695483870965 -7.1956953125Q501.803240625 -8.474578125 502.99384999999995 -10.721828851744187Q504.18445937499996 -12.969079578488373 504.18445937499996 -15.881485101744188Q504.18445937499996 -18.820375000000002 502.99384999999995 -21.058140625Q501.803240625 -23.29590625 499.6830728618421 -24.561546875Q497.5629050986842 -25.8271875 494.8010588815789 -25.8271875Q492.128303125 -25.8271875 489.9937596174569 -24.558186168323864Q487.85921610991375 -23.289184836647728 486.67020492995687 -21.048961381392047Q485.48119375 -18.808737926136363 485.48119375 -15.905908025568182Q485.48119375 -12.976593750000001 486.6695283934049 -10.727572265625Q487.8578630368098 -8.47855078125 489.9912145513804 -7.1976816406249995Q492.1245660659509 -5.9168125 494.81406875 -5.9168125ZM533.3230480976512 0.768Q528.7914125 0.768 525.1279593749999 -1.33296875Q521.4645062499999 -3.4339375 519.3315375 -7.189075348078216Q517.1985687499999 -10.944213196156433 517.1985687499999 -15.848221985153405Q517.1985687499999 -20.8220625 519.3502953125 -24.5793046875Q521.502021875 -28.336546875 525.181329717548 -30.4242734375Q528.860637560096 -32.512 533.3919573431776 -32.512Q537.9853499999999 -32.512 541.6488031249999 -30.4242734375Q545.3122562499999 -28.336546875 547.4452249999999 -24.59089089439655Q549.57819375 -20.845234913793107 549.57819375 -15.853875735597772Q549.57819375 -10.9219375 547.4264671875 -7.1779375000000005Q545.2747406249999 -3.4339375 541.595750760135 -1.33296875Q537.9167608952702 0.768 533.3230480976512 0.768ZM533.3448264766483 -5.8528125Q535.6261468749999 -5.8528125 537.5174281249999 -6.9716953125Q539.408709375 -8.090578125 540.5761390624999 -10.332606019221883Q541.7435687499999 -12.574633913443765 541.7435687499999 -15.876081581858408Q541.7435687499999 -19.21540625 540.5948968749999 -21.4344140625Q539.4462249999999 -23.653421875 537.5534903391767 -24.7723046875Q535.6607556783536 -25.8911875 533.4132563107243 -25.8911875Q531.214615625 -25.8911875 529.2913343749999 -24.7723046875Q527.368053125 -23.653421875 526.2006234374999 -21.4280140625Q525.0331937499999 -19.202606250000002 525.0331937499999 -15.864736527777778Q525.0331937499999 -12.575953125 526.2006234374999 -10.333265625Q527.368053125 -8.090578125 529.2538187499999 -6.9716953125Q531.1395843749999 -5.8528125 533.3448264766483 -5.8528125ZM567.941771875 0.768Q563.847959375 0.768 560.6678109375 -0.6102109375Q557.4876624999999 -1.988421875 555.584209375 -4.4281484375Q553.68075625 -6.867875 553.312209375 -10.052421875H561.0144124999999Q561.34544375 -8.73271875 562.2292953125 -7.6292890625Q563.113146875 -6.5258593750000005 564.5420921875 -5.879250000000001Q565.9710375 -5.232640625 567.87335 -5.232640625Q569.7800843749999 -5.232640625 570.9684828124999 -5.77221875Q572.15688125 -6.311796875 572.7284593749999 -7.1934375Q573.3000374999999 -8.075078125000001 573.3000374999999 -9.037265625Q573.3000374999999 -10.533515625 572.4779749999999 -11.3003984375Q571.6559124999999 -12.06728125 570.0757874999999 -12.5505859375Q568.4956625 -13.033890625 566.317475 -13.51940625Q564.2915374999999 -13.982859375 562.1883578124999 -14.622859375Q560.085178125 -15.262859375 558.3472406249999 -16.254859375Q556.6093031249999 -17.246859375 555.5510921875 -18.790585937499998Q554.49288125 -20.3343125 554.49288125 -22.61625Q554.49288125 -25.42121875 555.9935765625 -27.671156250000003Q557.494271875 -29.92109375 560.3113890625 -31.216546875Q563.12850625 -32.512 567.0457718749999 -32.512Q572.578490625 -32.512 575.9429124999999 -29.9233046875Q579.307334375 -27.334609375 579.8723031249999 -22.6780625H572.5739749999999Q572.2650062499999 -24.4744375 570.8228187499999 -25.479656249999998Q569.38063125 -26.484875 567.0082562499999 -26.484875Q564.5674593749999 -26.484875 563.2830609374998 -25.5469609375Q561.9986624999999 -24.609046875 561.9986624999999 -23.154734375Q561.9986624999999 -22.17709375 562.8549359374999 -21.434484375Q563.711209375 -20.691875 565.2615453125 -20.1710546875Q566.8118812499999 -19.650234375 568.877521875 -19.16471875Q572.2033343749999 -18.418781250000002 574.933271875 -17.4775390625Q577.663209375 -16.536296875 579.3459671874999 -14.73878125Q581.0287249999999 -12.941265625 581.0287249999999 -9.511750000000001Q581.092725 -6.552296875000001 579.4827875 -4.2196015625Q577.87285 -1.88690625 574.940975 -0.559453125Q572.0091 0.768 567.941771875 0.768Z" fill="#FFFFFF"/></g></svg>
